<?xml version="1.0" encoding="UTF-8"?>
<svg version="1.1" xmlns="http://www.w3.org/2000/svg" width="512" height="512">
<path d="M0 0 C2.11114822 1.19272763 4.15762603 2.45471139 6.20117188 3.75976562 C7.70061369 4.68076987 9.20192497 5.59873737 10.70507812 6.51367188 C11.43098145 6.95727051 12.15688477 7.40086914 12.90478516 7.85791016 C15.58399612 9.44779268 18.33578911 10.83909022 21.13867188 12.19726562 C27.27932201 15.17986712 33.16112875 18.57016803 39.06542969 21.98828125 C42.38702528 23.89763967 45.73296128 25.76360127 49.07617188 27.63476562 C53.77786722 30.26679641 58.44400619 32.94383735 63.07617188 35.69726562 C67.32441823 38.1965736 71.65287825 40.46470229 76.07617188 42.63476562 C80.88317563 45.00161279 85.48319109 47.5041098 90.02929688 50.33398438 C92.49303458 51.79971069 94.97230312 53.17548589 97.49804688 54.52929688 C98.31176758 54.96846436 99.12548828 55.40763184 99.96386719 55.86010742 C101.59899313 56.73914009 103.23888103 57.60938203 104.88378906 58.4699707 C105.63821289 58.87755615 106.39263672 59.2851416 107.16992188 59.70507812 C108.18989258 60.24479248 108.18989258 60.24479248 109.23046875 60.79541016 C111.32199817 62.34743894 112.03121714 63.65282519 112.95117188 66.07226562 C113.14648438 69.08789063 113.14648438 69.08789063 113.07617188 72.32226562 C113.058125 73.39992188 113.04007812 74.47757812 113.02148438 75.58789062 C112.98667969 76.81765625 112.98667969 76.81765625 112.95117188 78.07226562 C113.53237793 78.11109863 114.11358398 78.14993164 114.71240234 78.18994141 C121.70710977 78.76124697 128.2899509 80.19735959 135.07617188 81.94726562 C136.10871094 82.20378906 137.14125 82.4603125 138.20507812 82.72460938 C143.95036215 84.18105717 149.45090871 85.87444975 154.95117188 88.07226562 C156.31847748 88.58713959 157.68699449 89.09880682 159.05664062 89.60742188 C160.41731771 90.11653646 161.77799479 90.62565104 163.13867188 91.13476562 C163.82380859 91.39064453 164.50894531 91.64652344 165.21484375 91.91015625 C168.8109401 93.25652918 172.39307782 94.62830124 175.95117188 96.07226562 C175.95117188 96.73226562 175.95117188 97.39226562 175.95117188 98.07226562 C176.49257813 98.17410156 177.03398437 98.2759375 177.59179688 98.38085938 C180.55713768 99.2498417 183.00642134 100.62698854 185.70117188 102.13476562 C186.68601562 102.68261719 187.67085938 103.23046875 188.68554688 103.79492188 C189.43320312 104.21644531 190.18085938 104.63796875 190.95117188 105.07226562 C190.95117188 105.73226562 190.95117188 106.39226562 190.95117188 107.07226562 C191.53769531 107.33394531 192.12421875 107.595625 192.72851562 107.86523438 C198.36040109 110.92367481 203.58217098 116.70678024 205.50976562 122.85351562 C207.20776674 131.38860089 206.32635991 139.98991118 201.95117188 147.50976562 C201.29117187 148.35539063 200.63117188 149.20101562 199.95117188 150.07226562 C199.29117187 150.07226562 198.63117188 150.07226562 197.95117188 150.07226562 C197.95117188 150.73226562 197.95117188 151.39226562 197.95117188 152.07226562 C195.96623226 153.71771634 193.99287909 155.21688807 191.88867188 156.69726562 C191.26613525 157.13731934 190.64359863 157.57737305 190.00219727 158.03076172 C185.44009575 161.18673216 180.76075701 164.04639431 175.88867188 166.69726562 C175.27048584 167.03967285 174.6522998 167.38208008 174.01538086 167.73486328 C170.52133454 169.57092041 167.90549286 170.47592032 163.95117188 170.07226562 C163.95117188 170.73226562 163.95117188 171.39226562 163.95117188 172.07226562 C163.1687915 172.30937256 162.38641113 172.54647949 161.58032227 172.79077148 C158.05710377 173.86050251 154.53537797 174.93506658 151.01367188 176.00976562 C149.78197266 176.38294922 148.55027344 176.75613281 147.28125 177.140625 C146.11142578 177.49833984 144.94160156 177.85605469 143.73632812 178.22460938 C142.65230713 178.55452881 141.56828613 178.88444824 140.45141602 179.22436523 C138.03909547 179.83682475 138.03909547 179.83682475 136.95117188 181.07226562 C134.96449573 181.30404451 132.97771985 181.53503229 130.99023438 181.75976562 C128.44901282 182.14922487 126.33268534 183.1083197 123.95117188 184.07226562 C120.63364249 184.82601651 117.29769105 185.46144465 113.95117188 186.07226562 C113.93699219 186.65234375 113.9228125 187.23242188 113.90820312 187.83007812 C113.86050781 188.61125 113.8128125 189.39242187 113.76367188 190.19726562 C113.72886719 190.96296875 113.6940625 191.72867188 113.65820312 192.51757812 C112.2818382 197.49074199 109.16490227 200.34371737 104.89257812 202.90820312 C103.77753906 203.41609375 102.6625 203.92398438 101.51367188 204.44726562 C100.26592254 205.03490891 99.01987221 205.62617087 97.77539062 206.22070312 C97.14165527 206.52202148 96.50791992 206.82333984 95.85498047 207.13378906 C92.77239088 208.65334208 89.79977753 210.3512929 86.82617188 212.07226562 C86.24569092 212.40709961 85.66520996 212.74193359 85.06713867 213.08691406 C82.3110146 214.68392776 79.56663217 216.3001054 76.82617188 217.92382812 C70.88616044 221.43524114 64.88471718 224.63646131 58.68945312 227.67382812 C55.66330762 229.21927761 52.84119033 230.95685247 49.99023438 232.79882812 C44.73325024 236.0819255 39.17693521 238.88697961 33.70898438 241.79882812 C28.73936962 244.45318706 23.81068353 247.1154191 19.01367188 250.07226562 C13.88991102 253.20531939 8.54400935 255.83163371 3.15039062 258.45898438 C-0.01612706 259.95411804 -0.01612706 259.95411804 -2.52929688 261.84179688 C-6.14303708 263.60664674 -8.1861273 263.06776467 -12.04882812 262.07226562 C-14.73137914 260.88517183 -17.22099581 259.45233646 -19.73632812 257.94726562 C-20.4340332 257.5427417 -21.13173828 257.13821777 -21.85058594 256.72143555 C-23.92369351 255.51655454 -25.98743716 254.29706139 -28.04882812 253.07226562 C-35.0365782 248.94276291 -42.02095122 245.04459049 -49.31054688 241.47070312 C-52.33840646 239.92437826 -55.16202145 238.18629356 -58.01367188 236.34179688 C-61.25658427 234.31886688 -64.63322721 232.55062836 -67.99804688 230.74023438 C-71.35834739 228.90304062 -74.67216175 226.99073058 -77.98632812 225.07226562 C-83.36808092 221.96533521 -88.83200844 219.10509513 -94.42773438 216.39648438 C-97.0558465 215.06871983 -99.53246402 213.60058677 -102.04882812 212.07226562 C-104.68525524 210.55553997 -107.33557385 209.06377639 -109.98632812 207.57226562 C-110.67662109 207.18167969 -111.36691406 206.79109375 -112.078125 206.38867188 C-116.01787148 204.17046391 -119.98422025 202.0568629 -124.04882812 200.07226562 C-124.04882812 199.41226563 -124.04882812 198.75226563 -124.04882812 198.07226562 C-125.03882813 197.74226562 -126.02882813 197.41226563 -127.04882812 197.07226562 C-127.04882812 193.44226563 -127.04882812 189.81226563 -127.04882812 186.07226562 C-129.24539062 185.88664062 -129.24539062 185.88664062 -131.48632812 185.69726562 C-144.74601958 184.37507417 -144.74601958 184.37507417 -147.04882812 182.07226562 C-148.03882813 181.94851563 -149.02882813 181.82476562 -150.04882812 181.69726562 C-152.93299009 181.32183424 -155.51217302 180.6570539 -158.25976562 179.70507812 C-161.27652828 178.67380638 -164.29615986 177.66808111 -167.33789062 176.71289062 C-181.38634849 172.2389207 -194.21302591 166.35745067 -207.04882812 159.07226562 C-207.04882812 158.41226563 -207.04882812 157.75226563 -207.04882812 157.07226562 C-207.72945312 156.88664063 -208.41007812 156.70101562 -209.11132812 156.50976562 C-215.75028222 153.26091575 -220.1252076 147.51576166 -223.16210938 140.87695312 C-225.41573349 133.74874999 -225.12724288 126.57625544 -222.04882812 119.75976562 C-215.93471443 109.25907174 -204.29338312 100.63736274 -193.04882812 96.07226562 C-191.72882813 96.07226562 -190.40882813 96.07226562 -189.04882812 96.07226562 C-189.04882812 95.41226563 -189.04882812 94.75226563 -189.04882812 94.07226562 C-187.83324219 93.65074219 -186.61765625 93.22921875 -185.36523438 92.79492188 C-183.7805462 92.24168754 -182.19591365 91.6882939 -180.61132812 91.13476562 C-179.80888672 90.85697266 -179.00644531 90.57917969 -178.1796875 90.29296875 C-177.41591797 90.02548828 -176.65214844 89.75800781 -175.86523438 89.48242188 C-175.15826416 89.2362915 -174.45129395 88.99016113 -173.72290039 88.73657227 C-172.04200181 88.19758587 -172.04200181 88.19758587 -171.04882812 87.07226562 C-169.04924449 87.0314578 -167.04837559 87.02972206 -165.04882812 87.07226562 C-165.04882812 86.41226563 -165.04882812 85.75226563 -165.04882812 85.07226562 C-139.28506475 78.52813002 -139.28506475 78.52813002 -127.04882812 76.07226562 C-127.10683594 75.25242187 -127.16484375 74.43257813 -127.22460938 73.58789062 C-127.26972656 72.51023437 -127.31484375 71.43257813 -127.36132812 70.32226562 C-127.41933594 69.25492187 -127.47734375 68.18757813 -127.53710938 67.08789062 C-127.04882812 64.07226562 -127.04882812 64.07226562 -125.10351562 62.00195312 C-121.10749824 59.47761477 -117.02446638 57.18325383 -112.86132812 54.94726562 C-111.06683418 53.9724158 -109.27256815 52.99714632 -107.47851562 52.02148438 C-106.57327148 51.53083496 -105.66802734 51.04018555 -104.73535156 50.53466797 C-100.63704919 48.30376728 -96.5614659 46.03262262 -92.48632812 43.75976562 C-87.83475427 41.16801765 -83.17641956 38.59389611 -78.48632812 36.07226562 C-73.78678792 33.52728385 -69.20345896 30.80412104 -64.61132812 28.07226562 C-58.72192034 24.56991168 -52.77768412 21.35408597 -46.60742188 18.36523438 C-43.65849436 16.87501299 -40.94064361 15.15194569 -38.17382812 13.35351562 C-34.5592014 11.17410834 -30.73519776 9.40853488 -26.94726562 7.55273438 C-24.42928524 6.26659615 -22.05539057 4.90403822 -19.67382812 3.38476562 C-19.04734375 2.98644531 -18.42085937 2.588125 -17.77539062 2.17773438 C-16.92074219 1.63052734 -16.92074219 1.63052734 -16.04882812 1.07226562 C-10.61289844 -2.32519043 -5.83543451 -2.64235595 0 0 Z M-12.35351562 15.48632812 C-13.24176025 15.99719971 -14.13000488 16.50807129 -15.04516602 17.03442383 C-15.99512451 17.58316162 -16.94508301 18.13189941 -17.92382812 18.69726562 C-24.44092176 22.44447169 -30.96682502 26.15562436 -37.58789062 29.71679688 C-40.42278962 31.27824124 -43.20200066 32.92242634 -45.98632812 34.57226562 C-50.87975987 37.45000916 -55.85693907 40.04671698 -60.96679688 42.51757812 C-65.06234181 44.58351841 -69.04790059 46.82990958 -73.04882812 49.07226562 C-74.4897458 49.87132437 -75.93114325 50.66951865 -77.37304688 51.46679688 C-86.63882721 56.59954875 -95.86833003 61.78831335 -105.04882812 67.07226562 C-102.08958033 70.34857569 -99.28564912 72.14546203 -95.29882812 74.00976562 C-91.75547066 75.7172531 -88.34197532 77.42065055 -85.04882812 79.57226562 C-80.76214088 82.36675161 -76.19621902 84.52940341 -71.58789062 86.74023438 C-69.04882812 88.07226562 -69.04882812 88.07226562 -67.04882812 90.07226562 C-66.05882812 90.07226562 -65.06882813 90.07226562 -64.04882812 90.07226562 C-64.04882812 90.73226562 -64.04882812 91.39226562 -64.04882812 92.07226562 C-61.50831776 93.4286398 -58.9667153 94.78285779 -56.42382812 96.13476562 C-55.65345215 96.54452637 -54.88307617 96.95428711 -54.08935547 97.37646484 C-49.32162391 99.90136741 -44.52261845 102.33213346 -39.67382812 104.69726562 C-35.45702473 106.78165364 -31.48134724 108.99262481 -27.54882812 111.57226562 C-23.37073066 114.28957642 -19.13697383 116.80010727 -14.73632812 119.13476562 C-13.04056641 120.04935547 -13.04056641 120.04935547 -11.31054688 120.98242188 C-6.6202553 122.54959714 -4.17535076 121.11215856 0.08398438 119.02929688 C0.74140625 118.65160156 1.39882813 118.27390625 2.07617188 117.88476562 C2.84832031 117.44519531 3.62046875 117.005625 4.41601562 116.55273438 C6.1831884 115.52074904 7.94588706 114.48108029 9.70507812 113.43554688 C16.25401113 109.55502066 22.87155243 106.04854212 29.72460938 102.74804688 C32.97289736 101.06098205 35.9120844 99.10545795 38.95117188 97.07226562 C39.94117188 96.74226563 40.93117188 96.41226563 41.95117188 96.07226562 C41.95117188 95.41226563 41.95117188 94.75226563 41.95117188 94.07226562 C42.78261719 93.82992187 43.6140625 93.58757812 44.47070312 93.33789062 C48.47984131 91.8800222 51.9603655 89.95858422 55.63867188 87.82226562 C57.06672622 87.0052804 58.49511247 86.18887506 59.92382812 85.37304688 C60.61492676 84.97682129 61.30602539 84.5805957 62.01806641 84.17236328 C64.51858135 82.74936248 67.04401943 81.3755477 69.57617188 80.00976562 C76.09770675 76.47519329 82.52154764 72.77047285 88.95117188 69.07226562 C88.95117188 68.08226562 88.95117188 67.09226563 88.95117188 66.07226562 C88.34273437 65.74355469 87.73429688 65.41484375 87.10742188 65.07617188 C82.76949427 62.72220822 78.43963387 60.35773472 74.15039062 57.91601562 C67.67863831 54.23423692 61.21069132 50.64267615 54.51367188 47.38476562 C49.86506267 45.10234039 45.65333266 42.62894215 41.41601562 39.66992188 C36.41113993 36.42587408 31.03739338 33.78037876 25.75537109 31.01855469 C19.701396 27.84328981 13.72440182 24.57101077 7.88867188 21.00976562 C-1.94712997 14.05225021 -1.94712997 14.05225021 -12.35351562 15.48632812 Z M-113.04882812 80.07226562 C-113.04882812 104.49226563 -113.04882812 128.91226563 -113.04882812 154.07226562 C-106.7705697 156.51558865 -106.7705697 156.51558865 -100.48242188 158.13476562 C-99.67772461 158.29033936 -98.87302734 158.44591309 -98.04394531 158.60620117 C-97.19993164 158.76000244 -96.35591797 158.91380371 -95.48632812 159.07226562 C-94.59461914 159.23960205 -93.70291016 159.40693848 -92.78417969 159.5793457 C-84.64512206 161.05975142 -76.4634875 162.14773137 -68.24975586 163.12109375 C-67.32235596 163.23259766 -66.39495605 163.34410156 -65.43945312 163.45898438 C-64.20243652 163.60146606 -64.20243652 163.60146606 -62.94042969 163.74682617 C-61.04882812 164.07226562 -61.04882812 164.07226562 -60.04882812 165.07226562 C-58.15890914 165.2182518 -56.2639231 165.29961653 -54.36914062 165.35351562 C-52.63470703 165.40958984 -52.63470703 165.40958984 -50.86523438 165.46679688 C-49.64707031 165.50160156 -48.42890625 165.53640625 -47.17382812 165.57226562 C-44.7804776 165.64108401 -42.38723556 165.71381901 -39.99414062 165.79101562 C-38.92695801 165.82130859 -37.85977539 165.85160156 -36.76025391 165.8828125 C-34.04882812 166.07226562 -34.04882812 166.07226562 -31.04882812 167.07226562 C-29.71357096 167.15200039 -28.37470729 167.179979 -27.03710938 167.16992188 C-26.35430908 167.16742432 -25.67150879 167.16492676 -24.96801758 167.16235352 C-24.10781006 167.15324951 -23.24760254 167.14414551 -22.36132812 167.13476562 C-19.61820312 167.11414063 -16.87507813 167.09351563 -14.04882812 167.07226562 C-14.04882812 156.18226563 -14.04882812 145.29226563 -14.04882812 134.07226562 C-18.00882812 132.09226562 -21.96882813 130.11226562 -26.04882812 128.07226562 C-28.23869445 126.77738814 -30.41106618 125.45146688 -32.54882812 124.07226562 C-37.6513719 120.86791696 -42.82606099 118.08020934 -48.24804688 115.45898438 C-51.6582975 113.77050603 -54.93565745 111.89347284 -58.20898438 109.95507812 C-60.15950586 108.85596232 -60.15950586 108.85596232 -63.04882812 109.07226562 C-63.04882812 108.41226563 -63.04882812 107.75226563 -63.04882812 107.07226562 C-74.00797255 100.78972416 -74.00797255 100.78972416 -85.23632812 95.00976562 C-90.65219232 92.36806013 -95.68888537 89.26973837 -100.74804688 86.00195312 C-104.67760611 83.70467234 -108.88933554 81.920929 -113.04882812 80.07226562 Z M92.86914062 82.27148438 C92.0626709 82.72958496 91.25620117 83.18768555 90.42529297 83.65966797 C89.60883301 84.1258252 88.79237305 84.59198242 87.95117188 85.07226562 C86.51108122 85.87281391 85.06971626 86.67107509 83.62695312 87.46679688 C76.50000273 91.41509835 69.38528823 95.37869176 62.32617188 99.44726562 C58.7423171 101.50818904 55.16833173 103.51278026 51.45117188 105.32226562 C47.98993273 106.9624432 47.98993273 106.9624432 45.13867188 108.94726562 C41.5569791 111.33506081 37.85417608 113.33716052 34.06445312 115.37304688 C31.31566346 116.87332731 28.60019533 118.42087598 25.8918457 119.99267578 C19.31825443 123.80629244 12.64709765 127.29961774 5.81445312 130.62695312 C2.85950058 132.04653212 2.85950058 132.04653212 -0.04882812 134.07226562 C-0.31594216 136.6262205 -0.39731842 138.93500936 -0.34179688 141.48632812 C-0.33755203 142.21596771 -0.33330719 142.9456073 -0.32893372 143.69735718 C-0.31212166 146.03103321 -0.27446681 148.36385002 -0.23632812 150.69726562 C-0.22128446 152.27798233 -0.2075955 153.85871256 -0.1953125 155.43945312 C-0.16221013 159.31738907 -0.11041217 163.19468161 -0.04882812 167.07226562 C2.24277507 167.09919047 4.53446734 167.11862686 6.82617188 167.13476562 C8.74042969 167.15216797 8.74042969 167.15216797 10.69335938 167.16992188 C13.83781839 167.30403132 13.83781839 167.30403132 15.95117188 166.07226562 C17.97047633 165.93003269 19.99401827 165.84602672 22.01757812 165.79101562 C23.22478516 165.75363281 24.43199219 165.71625 25.67578125 165.67773438 C28.2382783 165.60731461 30.80077832 165.53700243 33.36328125 165.46679688 C35.1721582 165.41072266 35.1721582 165.41072266 37.01757812 165.35351562 C38.13076416 165.32322266 39.2439502 165.29292969 40.39086914 165.26171875 C42.88367197 165.35743158 42.88367197 165.35743158 43.95117188 164.07226562 C45.8684606 163.74893363 47.79543478 163.48277305 49.72460938 163.24023438 C50.93358887 163.08345215 52.14256836 162.92666992 53.38818359 162.76513672 C54.68771973 162.59836426 55.98725586 162.4315918 57.32617188 162.25976562 C71.45545957 160.39775974 85.23494002 157.99118901 98.95117188 154.07226562 C98.95117188 129.65226562 98.95117188 105.23226562 98.95117188 80.07226562 C96.35585723 80.07226562 95.11824566 80.9820831 92.86914062 82.27148438 Z M-155.04882812 112.07226562 C-158.27901509 115.89771739 -160.49580559 119.38169149 -160.36132812 124.50976562 C-159.07842582 131.58405545 -153.20224395 136.58717346 -147.73632812 140.82226562 C-141.29013768 145.08029968 -134.64825467 147.80569453 -127.04882812 149.07226562 C-127.04882812 131.91226563 -127.04882812 114.75226563 -127.04882812 97.07226562 C-135.78020318 97.07226562 -148.93710203 106.13516028 -155.04882812 112.07226562 Z M112.95117188 98.07226562 C112.95117188 114.57226562 112.95117188 131.07226562 112.95117188 148.07226562 C120.37311853 145.69216991 120.37311853 145.69216991 127.01367188 142.38476562 C127.76777344 141.94777344 128.521875 141.51078125 129.29882812 141.06054688 C130.11673828 140.57134766 130.11673828 140.57134766 130.95117188 140.07226562 C130.95117188 139.41226563 130.95117188 138.75226563 130.95117188 138.07226562 C131.50804687 137.84539062 132.06492187 137.61851562 132.63867188 137.38476562 C136.67086244 135.09622503 139.40175786 131.89638664 141.95117188 128.07226562 C142.75829576 124.1375367 142.67896062 120.54924866 140.88867188 116.91601562 C134.21241538 107.48217493 124.1744605 102.76082947 113.95117188 98.07226562 C113.62117188 98.07226562 113.29117187 98.07226562 112.95117188 98.07226562 Z M-110.04882812 190.07226562 C-106.17024572 193.54961536 -101.92773665 195.85768108 -97.36523438 198.29101562 C-93.44027131 200.39912299 -89.55563414 202.57350192 -85.67382812 204.75976562 C-84.65712036 205.33053833 -84.65712036 205.33053833 -83.61987305 205.9128418 C-82.96994385 206.27869385 -82.32001465 206.6445459 -81.65039062 207.02148438 C-80.71888184 207.54427979 -80.71888184 207.54427979 -79.76855469 208.07763672 C-78.25787077 208.95136276 -76.78614946 209.89174046 -75.32226562 210.84179688 C-72.89337254 212.38959299 -72.89337254 212.38959299 -69.04882812 212.07226562 C-69.04882812 212.73226562 -69.04882812 213.39226562 -69.04882812 214.07226562 C-67.94152344 214.61109375 -66.83421875 215.14992188 -65.69335938 215.70507812 C-60.59312615 218.25575557 -55.67185143 221.09420207 -50.73632812 223.94726562 C-44.33203415 227.6311368 -37.91721532 231.27423862 -31.40429688 234.76367188 C-27.96945239 236.67191881 -24.65125073 238.76202648 -21.33789062 240.87304688 C-18.71837236 242.38217752 -18.71837236 242.38217752 -14.04882812 243.07226562 C-14.04882812 227.89226562 -14.04882812 212.71226562 -14.04882812 197.07226562 C-17.87992187 196.86730469 -21.71101563 196.66234375 -25.65820312 196.45117188 C-29.40155286 196.24968945 -33.14486952 196.04760266 -36.88818359 195.84545898 C-39.47376165 195.70615608 -42.05937322 195.56747361 -44.64501953 195.42944336 C-48.37867237 195.23001763 -52.11219582 195.02830175 -55.84570312 194.82617188 C-56.98682556 194.76571182 -58.127948 194.70525177 -59.3036499 194.64295959 C-80.64151148 193.47958227 -80.64151148 193.47958227 -82.04882812 192.07226562 C-84.69867611 191.86098206 -87.3322271 191.69613897 -89.98632812 191.57226562 C-97.78013206 191.20661366 -97.78013206 191.20661366 -100.04882812 190.07226562 C-101.75585548 190.00230549 -103.46550815 189.98786409 -105.17382812 190.00976562 C-106.08390625 190.01878906 -106.99398437 190.0278125 -107.93164062 190.03710938 C-108.97964844 190.05451172 -108.97964844 190.05451172 -110.04882812 190.07226562 Z M96.95117188 188.07226562 C95.96117187 188.40226563 94.97117187 188.73226562 93.95117188 189.07226562 C90.82631172 189.37713003 87.70089076 189.58067779 84.56835938 189.79101562 C82.02703326 189.78723547 82.02703326 189.78723547 80.95117188 191.07226562 C77.31163991 191.34297461 73.67873664 191.5187208 70.03320312 191.67773438 C66.17644095 191.49925657 66.17644095 191.49925657 62.95117188 193.07226562 C61.54761027 193.27857684 60.13457215 193.42081712 58.72070312 193.53710938 C57.78991943 193.61396973 56.85913574 193.69083008 55.90014648 193.77001953 C54.86510986 193.84913574 53.83007324 193.92825195 52.76367188 194.00976562 C51.15600952 194.13617432 51.15600952 194.13617432 49.51586914 194.26513672 C33.01371853 195.50707363 16.47760519 196.24298223 -0.04882812 197.07226562 C-0.04882812 212.25226563 -0.04882812 227.43226563 -0.04882812 243.07226562 C5.60111805 240.95353581 9.36027658 239.40634757 14.20117188 236.25976562 C20.27463799 232.42610956 26.48409932 229.18177585 32.95117188 226.07226562 C40.61602838 222.30572439 47.98096126 218.36000283 55.13867188 213.69726562 C59.99978631 210.57226349 64.99768389 207.98897553 70.18945312 205.46289062 C73.15154434 203.97137086 75.89780085 202.29855234 78.67773438 200.49804688 C81.80230433 198.53847981 84.99829584 196.71274853 88.20117188 194.88476562 C89.10585205 194.3668042 89.10585205 194.3668042 90.02880859 193.83837891 C92.96533874 192.16656356 95.90756674 190.54133246 98.95117188 189.07226562 C97.96117187 188.57726562 97.96117187 188.57726562 96.95117188 188.07226562 Z " fill="#F59900" transform="translate(260.048828125,125.927734375)"/>
</svg>
